{
    "asset" : {
        "generator" : "Khronos glTF Blender I/O v1.4.40",
        "version" : "2.0"
    },
    "scene" : 0,
    "scenes" : [
        {
            "name" : "Scene",
            "nodes" : [
                0,
                1,
                2
            ]
        }
    ],
    "nodes" : [
        {
            "mesh" : 0,
            "name" : "cube-150",
            "translation" : [
                -0.2750000059604645,
                0,
                0
            ]
        },
        {
            "mesh" : 1,
            "name" : "cube-300"
        },
        {
            "mesh" : 2,
            "name" : "cube-600",
            "translation" : [
                0.5,
                0,
                0
            ]
        }
    ],
    "meshes" : [
        {
            "name" : "Cube.001",
            "primitives" : [
                {
                    "attributes" : {
                        "POSITION" : 0,
                        "NORMAL" : 1,
                        "TEXCOORD_0" : 2
                    },
                    "indices" : 3
                }
            ]
        },
        {
            "name" : "Cube.002",
            "primitives" : [
                {
                    "attributes" : {
                        "POSITION" : 4,
                        "NORMAL" : 5,
                        "TEXCOORD_0" : 6
                    },
                    "indices" : 3
                }
            ]
        },
        {
            "name" : "Cube.003",
            "primitives" : [
                {
                    "attributes" : {
                        "POSITION" : 7,
                        "NORMAL" : 8,
                        "TEXCOORD_0" : 9
                    },
                    "indices" : 3
                }
            ]
        }
    ],
    "accessors" : [
        {
            "bufferView" : 0,
            "componentType" : 5126,
            "count" : 492,
            "max" : [
                0.07500000298023224,
                0.15000000596046448,
                0.07500000298023224
            ],
            "min" : [
                -0.07500000298023224,
                -5.122274160385132e-09,
                -0.07500000298023224
            ],
            "type" : "VEC3"
        },
        {
            "bufferView" : 1,
            "componentType" : 5126,
            "count" : 492,
            "type" : "VEC3"
        },
        {
            "bufferView" : 2,
            "componentType" : 5126,
            "count" : 492,
            "type" : "VEC2"
        },
        {
            "bufferView" : 3,
            "componentType" : 5123,
            "count" : 2304,
            "type" : "SCALAR"
        },
        {
            "bufferView" : 4,
            "componentType" : 5126,
            "count" : 492,
            "max" : [
                0.15000000596046448,
                0.30000001192092896,
                0.15000000596046448
            ],
            "min" : [
                -0.15000000596046448,
                -1.0244548320770264e-08,
                -0.15000000596046448
            ],
            "type" : "VEC3"
        },
        {
            "bufferView" : 5,
            "componentType" : 5126,
            "count" : 492,
            "type" : "VEC3"
        },
        {
            "bufferView" : 6,
            "componentType" : 5126,
            "count" : 492,
            "type" : "VEC2"
        },
        {
            "bufferView" : 7,
            "componentType" : 5126,
            "count" : 492,
            "max" : [
                0.30000001192092896,
                0.6000000238418579,
                0.30000001192092896
            ],
            "min" : [
                -0.30000001192092896,
                -2.0489096641540527e-08,
                -0.30000001192092896
            ],
            "type" : "VEC3"
        },
        {
            "bufferView" : 8,
            "componentType" : 5126,
            "count" : 492,
            "type" : "VEC3"
        },
        {
            "bufferView" : 9,
            "componentType" : 5126,
            "count" : 492,
            "type" : "VEC2"
        }
    ],
    "bufferViews" : [
        {
            "buffer" : 0,
            "byteLength" : 5904,
            "byteOffset" : 0
        },
        {
            "buffer" : 0,
            "byteLength" : 5904,
            "byteOffset" : 5904
        },
        {
            "buffer" : 0,
            "byteLength" : 3936,
            "byteOffset" : 11808
        },
        {
            "buffer" : 0,
            "byteLength" : 4608,
            "byteOffset" : 15744
        },
        {
            "buffer" : 0,
            "byteLength" : 5904,
            "byteOffset" : 20352
        },
        {
            "buffer" : 0,
            "byteLength" : 5904,
            "byteOffset" : 26256
        },
        {
            "buffer" : 0,
            "byteLength" : 3936,
            "byteOffset" : 32160
        },
        {
            "buffer" : 0,
            "byteLength" : 5904,
            "byteOffset" : 36096
        },
        {
            "buffer" : 0,
            "byteLength" : 5904,
            "byteOffset" : 42000
        },
        {
            "buffer" : 0,
            "byteLength" : 3936,
            "byteOffset" : 47904
        }
    ],
    "buffers" : [
        {
            "byteLength" : 51840,
            "uri" : "data:application/octet-stream;base64,"
        }
    ]
}
