{
    "asset" : {
        "generator" : "Khronos glTF Blender I/O v1.4.40",
        "version" : "2.0"
    },
    "scene" : 0,
    "scenes" : [
        {
            "name" : "Scene",
            "nodes" : [
                0,
                1,
                2,
                3,
                4,
                5,
                6
            ]
        }
    ],
    "nodes" : [
        {
            "mesh" : 0,
            "name" : "Back"
        },
        {
            "mesh" : 1,
            "name" : "Fabric"
        },
        {
            "mesh" : 2,
            "name" : "Fabric_Mettress"
        },
        {
            "mesh" : 3,
            "name" : "Fabric_Mattress_Edge"
        },
        {
            "mesh" : 4,
            "name" : "Metal"
        },
        {
            "mesh" : 5,
            "name" : "Legs_Wood"
        },
        {
            "mesh" : 6,
            "name" : "Logo"
        }
    ],
    "meshes" : [
        {
            "name" : "Mesh",
            "primitives" : [
                {
                    "attributes" : {
                        "POSITION" : 0,
                        "NORMAL" : 1,
                        "TEXCOORD_0" : 2
                    },
                    "indices" : 3
                }
            ]
        },
        {
            "name" : "Mesh.001",
            "primitives" : [
                {
                    "attributes" : {
                        "POSITION" : 4,
                        "NORMAL" : 5,
                        "TEXCOORD_0" : 6
                    },
                    "indices" : 7
                }
            ]
        },
        {
            "name" : "Mesh.002",
            "primitives" : [
                {
                    "attributes" : {
                        "POSITION" : 8,
                        "NORMAL" : 9,
                        "TEXCOORD_0" : 10
                    },
                    "indices" : 11
                }
            ]
        },
        {
            "name" : "Mesh.003",
            "primitives" : [
                {
                    "attributes" : {
                        "POSITION" : 12,
                        "NORMAL" : 13,
                        "TEXCOORD_0" : 14
                    },
                    "indices" : 15
                }
            ]
        },
        {
            "name" : "Mesh.004",
            "primitives" : [
                {
                    "attributes" : {
                        "POSITION" : 16,
                        "NORMAL" : 17,
                        "TEXCOORD_0" : 18
                    },
                    "indices" : 19
                }
            ]
        },
        {
            "name" : "Mesh.005",
            "primitives" : [
                {
                    "attributes" : {
                        "POSITION" : 20,
                        "NORMAL" : 21,
                        "TEXCOORD_0" : 22
                    },
                    "indices" : 23
                }
            ]
        },
        {
            "name" : "Mesh.006",
            "primitives" : [
                {
                    "attributes" : {
                        "POSITION" : 24,
                        "NORMAL" : 25,
                        "TEXCOORD_0" : 26
                    },
                    "indices" : 27
                }
            ]
        }
    ],
    "accessors" : [
        {
            "bufferView" : 0,
            "componentType" : 5126,
            "count" : 437,
            "max" : [
                0.865741491317749,
                1.20574152469635,
                -1.1058322191238403
            ],
            "min" : [
                -0.865741491317749,
                0.004258499946445227,
                -1.1099967956542969
            ],
            "type" : "VEC3"
        },
        {
            "bufferView" : 1,
            "componentType" : 5126,
            "count" : 437,
            "type" : "VEC3"
        },
        {
            "bufferView" : 2,
            "componentType" : 5126,
            "count" : 437,
            "type" : "VEC2"
        },
        {
            "bufferView" : 3,
            "componentType" : 5123,
            "count" : 2376,
            "type" : "SCALAR"
        },
        {
            "bufferView" : 4,
            "componentType" : 5126,
            "count" : 24627,
            "max" : [
                0.8700015544891357,
                1.209999918937683,
                1.0199999809265137
            ],
            "min" : [
                -0.8700015544891357,
                5.984207122241908e-19,
                -1.1071534156799316
            ],
            "type" : "VEC3"
        },
        {
            "bufferView" : 5,
            "componentType" : 5126,
            "count" : 24627,
            "type" : "VEC3"
        },
        {
            "bufferView" : 6,
            "componentType" : 5126,
            "count" : 24627,
            "type" : "VEC2"
        },
        {
            "bufferView" : 7,
            "componentType" : 5123,
            "count" : 129732,
            "type" : "SCALAR"
        },
        {
            "bufferView" : 8,
            "componentType" : 5126,
            "count" : 722,
            "max" : [
                0.7846871614456177,
                0.6299967169761658,
                0.9846887588500977
            ],
            "min" : [
                -0.7846927642822266,
                0.4299999177455902,
                -0.9846887588500977
            ],
            "type" : "VEC3"
        },
        {
            "bufferView" : 9,
            "componentType" : 5126,
            "count" : 722,
            "type" : "VEC3"
        },
        {
            "bufferView" : 10,
            "componentType" : 5126,
            "count" : 722,
            "type" : "VEC2"
        },
        {
            "bufferView" : 11,
            "componentType" : 5123,
            "count" : 3888,
            "type" : "SCALAR"
        },
        {
            "bufferView" : 12,
            "componentType" : 5126,
            "count" : 2760,
            "max" : [
                0.8009746074676514,
                0.6309841871261597,
                1.0009762048721313
            ],
            "min" : [
                -0.8009802103042603,
                0.4290161430835724,
                -1.0009762048721313
            ],
            "type" : "VEC3"
        },
        {
            "bufferView" : 13,
            "componentType" : 5126,
            "count" : 2760,
            "type" : "VEC3"
        },
        {
            "bufferView" : 14,
            "componentType" : 5126,
            "count" : 2760,
            "type" : "VEC2"
        },
        {
            "bufferView" : 15,
            "componentType" : 5123,
            "count" : 9768,
            "type" : "SCALAR"
        },
        {
            "bufferView" : 16,
            "componentType" : 5126,
            "count" : 500,
            "max" : [
                0.7983797192573547,
                0.5425489544868469,
                0.40254896879196167
            ],
            "min" : [
                -0.7983815670013428,
                0.5174509882926941,
                -0.40254896879196167
            ],
            "type" : "VEC3"
        },
        {
            "bufferView" : 17,
            "componentType" : 5126,
            "count" : 500,
            "type" : "VEC3"
        },
        {
            "bufferView" : 18,
            "componentType" : 5126,
            "count" : 500,
            "type" : "VEC2"
        },
        {
            "bufferView" : 19,
            "componentType" : 5123,
            "count" : 2112,
            "type" : "SCALAR"
        },
        {
            "bufferView" : 20,
            "componentType" : 5126,
            "count" : 648,
            "max" : [
                0.8099983930587769,
                0.030000006780028343,
                1.0099999904632568
            ],
            "min" : [
                -0.8100016117095947,
                -2.1489647394901112e-08,
                -1.0099999904632568
            ],
            "type" : "VEC3"
        },
        {
            "bufferView" : 21,
            "componentType" : 5126,
            "count" : 648,
            "type" : "VEC3"
        },
        {
            "bufferView" : 22,
            "componentType" : 5126,
            "count" : 648,
            "type" : "VEC2"
        },
        {
            "bufferView" : 23,
            "componentType" : 5123,
            "count" : 2688,
            "type" : "SCALAR"
        },
        {
            "bufferView" : 24,
            "componentType" : 5126,
            "count" : 28,
            "max" : [
                0.7649983763694763,
                0.26499998569488525,
                1.0221998691558838
            ],
            "min" : [
                0.7149983644485474,
                0.2449999898672104,
                1.0199999809265137
            ],
            "type" : "VEC3"
        },
        {
            "bufferView" : 25,
            "componentType" : 5126,
            "count" : 28,
            "type" : "VEC3"
        },
        {
            "bufferView" : 26,
            "componentType" : 5126,
            "count" : 28,
            "type" : "VEC2"
        },
        {
            "bufferView" : 27,
            "componentType" : 5123,
            "count" : 54,
            "type" : "SCALAR"
        }
    ],
    "bufferViews" : [
        {
            "buffer" : 0,
            "byteLength" : 5244,
            "byteOffset" : 0
        },
        {
            "buffer" : 0,
            "byteLength" : 5244,
            "byteOffset" : 5244
        },
        {
            "buffer" : 0,
            "byteLength" : 3496,
            "byteOffset" : 10488
        },
        {
            "buffer" : 0,
            "byteLength" : 4752,
            "byteOffset" : 13984
        },
        {
            "buffer" : 0,
            "byteLength" : 295524,
            "byteOffset" : 18736
        },
        {
            "buffer" : 0,
            "byteLength" : 295524,
            "byteOffset" : 314260
        },
        {
            "buffer" : 0,
            "byteLength" : 197016,
            "byteOffset" : 609784
        },
        {
            "buffer" : 0,
            "byteLength" : 259464,
            "byteOffset" : 806800
        },
        {
            "buffer" : 0,
            "byteLength" : 8664,
            "byteOffset" : 1066264
        },
        {
            "buffer" : 0,
            "byteLength" : 8664,
            "byteOffset" : 1074928
        },
        {
            "buffer" : 0,
            "byteLength" : 5776,
            "byteOffset" : 1083592
        },
        {
            "buffer" : 0,
            "byteLength" : 7776,
            "byteOffset" : 1089368
        },
        {
            "buffer" : 0,
            "byteLength" : 33120,
            "byteOffset" : 1097144
        },
        {
            "buffer" : 0,
            "byteLength" : 33120,
            "byteOffset" : 1130264
        },
        {
            "buffer" : 0,
            "byteLength" : 22080,
            "byteOffset" : 1163384
        },
        {
            "buffer" : 0,
            "byteLength" : 19536,
            "byteOffset" : 1185464
        },
        {
            "buffer" : 0,
            "byteLength" : 6000,
            "byteOffset" : 1205000
        },
        {
            "buffer" : 0,
            "byteLength" : 6000,
            "byteOffset" : 1211000
        },
        {
            "buffer" : 0,
            "byteLength" : 4000,
            "byteOffset" : 1217000
        },
        {
            "buffer" : 0,
            "byteLength" : 4224,
            "byteOffset" : 1221000
        },
        {
            "buffer" : 0,
            "byteLength" : 7776,
            "byteOffset" : 1225224
        },
        {
            "buffer" : 0,
            "byteLength" : 7776,
            "byteOffset" : 1233000
        },
        {
            "buffer" : 0,
            "byteLength" : 5184,
            "byteOffset" : 1240776
        },
        {
            "buffer" : 0,
            "byteLength" : 5376,
            "byteOffset" : 1245960
        },
        {
            "buffer" : 0,
            "byteLength" : 336,
            "byteOffset" : 1251336
        },
        {
            "buffer" : 0,
            "byteLength" : 336,
            "byteOffset" : 1251672
        },
        {
            "buffer" : 0,
            "byteLength" : 224,
            "byteOffset" : 1252008
        },
        {
            "buffer" : 0,
            "byteLength" : 108,
            "byteOffset" : 1252232
        }
    ],
    "buffers" : [
        {
            "byteLength" : 1252340,
            "uri" : "data:application/octet-stream;base64,"
        }
    ]
}
